<?xml version="1.0" encoding="UTF-8"?>
<svg xmlns="http://www.w3.org/2000/svg" width="262" height="141" viewBox="0 0 262 141" fill="none">
  <path d="M73.7871 48.8175C71.034 45.6257 67.518 43.0316 63.1373 40.9589C67.7278 38.4284 71.8352 34.6389 74.887 29.934C80.6411 21.0644 83.4196 10.4654 82.3197 1.57681C82.2116 0.712108 81.5058 0.0508648 80.6411 0C80.603 0 80.5648 0 80.5331 0C79.7129 0 78.988 0.559513 78.7846 1.36699C76.2032 11.6989 66.6978 16.8808 59.3415 18.1778C57.0335 18.5847 54.522 18.7818 51.68 18.7818C48.4628 18.7818 45.1502 18.5275 41.9394 18.2859C38.8239 18.0507 35.6003 17.8027 32.4022 17.7773H31.9889C20.2201 17.7773 11.4205 21.4014 5.83805 28.5542C0.0585299 35.936 -1.58822 47.2153 1.60991 56.4854C1.6417 56.6189 1.66713 56.7461 1.69892 56.8796C1.7625 57.1276 1.83244 57.3692 1.90238 57.6171C1.92781 57.6998 1.95324 57.7824 1.97868 57.8715C2.21393 58.6026 2.5064 59.3084 2.84974 59.9951C2.87517 60.0459 2.9006 60.0968 2.92603 60.1477C3.04048 60.3702 3.15493 60.5864 3.28209 60.8025C3.31388 60.8534 3.34567 60.9043 3.37746 60.9551C3.58728 61.2985 3.80345 61.6418 4.04506 61.9724C4.13407 62.0996 4.22309 62.2204 4.31846 62.3476C4.43291 62.4938 4.54099 62.64 4.6618 62.7863C4.82075 62.9834 4.98606 63.1741 5.15137 63.3649C5.27217 63.4984 5.39298 63.6319 5.52014 63.7654C5.69817 63.9562 5.88255 64.1405 6.0733 64.3249C6.17503 64.4203 6.2704 64.5157 6.37848 64.611C6.63281 64.8463 6.89349 65.0752 7.16689 65.2977C7.23683 65.3549 7.31313 65.4122 7.38942 65.4694C7.63103 65.6601 7.87264 65.8445 8.12696 66.0289C8.24141 66.1116 8.35585 66.1942 8.4703 66.2769C8.7437 66.4676 9.02346 66.652 9.31593 66.83C9.45581 66.919 9.60204 67.0017 9.74828 67.0907C9.97081 67.2242 10.1933 67.3514 10.4286 67.4785C10.6003 67.5739 10.7719 67.6629 10.95 67.7583C11.1534 67.86 11.3569 67.9618 11.5603 68.0571C11.8846 68.2161 12.2216 68.3687 12.5586 68.5149C12.6984 68.5721 12.832 68.6357 12.9718 68.6929C13.2262 68.801 13.4868 68.9028 13.7539 68.9981C13.7857 69.0108 13.8111 69.0172 13.8429 69.0299C13.9256 69.0617 14.0146 69.0935 14.0972 69.1253C13.8111 72.6922 14.1544 76.3926 15.1336 79.9977C17.4607 88.5684 23.202 95.9374 35.4414 105.951C33.9663 107.986 32.7455 110.224 31.8173 112.647C28.9243 120.213 29.3885 128.256 33.0317 133.641C35.0217 136.578 38.8557 140.069 45.9132 140.489C46.2565 140.508 46.5998 140.527 46.9114 140.533C46.9114 140.533 46.9178 140.533 46.9241 140.533C46.9241 140.533 46.9305 140.533 46.9368 140.533H46.9941C54.1215 140.419 59.5259 137.138 62.2153 131.288C65.5915 123.945 63.9893 113.562 58.4831 105.951C70.7161 95.9374 76.4575 88.5684 78.7973 79.9977C80.0625 75.3562 80.2533 70.5432 79.4267 66.0734C79.8273 65.0116 80.1198 63.9307 80.2914 62.8308C80.2914 62.8181 80.2914 62.799 80.2978 62.7863C80.3232 62.6146 80.3423 62.4429 80.3614 62.2713C80.3741 62.1759 80.3868 62.0805 80.3932 61.9851V61.9724C80.3932 61.9724 80.3932 61.9724 80.3932 61.9661C80.4122 61.7245 80.4313 61.4829 80.444 61.2412C80.6157 56.5617 78.384 52.3971 73.8062 48.8493L73.7871 48.8175Z" fill="white"></path>
  <path d="M247.722 61.0259C247.722 56.8862 250.667 53.8301 254.751 53.8301C258.779 53.8301 261.502 56.6362 261.502 60.6091V60.8592C261.474 61.526 261.28 61.8871 260.557 61.8871H251.167L251.25 62.3317C251.667 64.1098 253.139 65.2489 255.14 65.2489C257.168 65.2489 258.335 64.3598 258.946 63.2763C258.974 63.2207 260.863 63.3874 260.863 64.9433C260.863 65.6934 260.335 66.4713 259.363 67.0548C258.363 67.666 256.918 68.0827 255.029 68.0827C250.611 68.0827 247.722 65.3322 247.722 61.0259ZM257.89 59.7478C257.779 57.7753 256.584 56.525 254.723 56.525C252.862 56.525 251.472 57.8586 251.222 59.7478H257.89Z" fill="#565656"></path>
  <path d="M236.9 68.0829C233.233 68.0829 230.677 65.1935 230.677 60.9427C230.677 56.6363 233.233 53.8302 236.983 53.8302C238.928 53.8302 240.484 54.7193 241.262 55.8862V48.8293C241.262 48.7182 241.957 48.3848 242.735 48.3848C243.901 48.3848 245.179 48.996 245.179 51.5242V65.9436C245.179 67.3605 244.485 67.805 243.457 67.805H243.068C242.179 67.805 241.512 67.4994 241.373 66.4437C241.345 66.1381 241.318 65.8325 241.318 65.4991C240.401 67.0827 238.901 68.0829 236.9 68.0829ZM241.29 61.6928V59.1368C240.706 57.8032 239.595 56.9697 237.928 56.9697C235.817 56.9697 234.4 58.4978 234.4 60.9427C234.4 63.3042 235.844 64.9434 237.873 64.9434C239.734 64.9434 241.29 63.6376 241.29 61.6928Z" fill="#565656"></path>
  <path d="M210.287 64.1098C210.287 61.0814 213.232 59.6923 218.983 59.6089H219.428C219.428 59.47 219.428 59.3311 219.4 59.22C219.344 57.6363 218.372 56.7751 216.649 56.7751C214.788 56.7751 213.788 57.7197 213.315 58.7477C213.288 58.8032 210.787 58.9977 210.787 57.1918C210.787 56.5806 211.065 55.9416 211.621 55.4137C212.538 54.4691 214.288 53.8301 216.899 53.8301C221.206 53.8301 223.29 55.8027 223.29 59.4422V67.4437C223.29 67.6382 222.567 67.8883 221.817 67.8883C220.872 67.8883 220.122 67.4993 219.761 66.5825C219.678 66.3324 219.594 66.0268 219.539 65.6656C218.594 67.1381 216.872 67.9994 214.844 67.9994C212.01 67.9994 210.287 66.4435 210.287 64.1098ZM219.428 62.5539V61.5815H218.678C215.594 61.6927 213.954 62.2761 213.954 63.8042C213.954 64.8321 214.76 65.4711 216.066 65.4711C218.011 65.4711 219.4 64.2765 219.428 62.5539Z" fill="#565656"></path>
  <path d="M199.466 68.0829C195.798 68.0829 193.242 65.1935 193.242 60.9427C193.242 56.6363 195.798 53.8302 199.549 53.8302C201.494 53.8302 203.05 54.7193 203.827 55.8862V48.8293C203.827 48.7182 204.522 48.3848 205.3 48.3848C206.467 48.3848 207.745 48.996 207.745 51.5242V65.9436C207.745 67.3605 207.05 67.805 206.022 67.805H205.633C204.744 67.805 204.078 67.4994 203.939 66.4437C203.911 66.1381 203.883 65.8325 203.883 65.4991C202.966 67.0827 201.466 68.0829 199.466 68.0829ZM203.855 61.6928V59.1368C203.272 57.8032 202.161 56.9697 200.494 56.9697C198.382 56.9697 196.965 58.4978 196.965 60.9427C196.965 63.3042 198.41 64.9434 200.438 64.9434C202.299 64.9434 203.855 63.6376 203.855 61.6928Z" fill="#565656"></path>
  <path d="M177.852 64.1098C177.852 61.0814 180.797 59.6923 186.548 59.6089H186.992C186.992 59.47 186.992 59.3311 186.964 59.22C186.909 57.6363 185.936 56.7751 184.214 56.7751C182.352 56.7751 181.352 57.7197 180.88 58.7477C180.852 58.8032 178.352 58.9977 178.352 57.1918C178.352 56.5806 178.629 55.9416 179.185 55.4137C180.102 54.4691 181.852 53.8301 184.464 53.8301C188.77 53.8301 190.854 55.8027 190.854 59.4422V67.4437C190.854 67.6382 190.132 67.8883 189.381 67.8883C188.437 67.8883 187.687 67.4993 187.326 66.5825C187.242 66.3324 187.159 66.0268 187.103 65.6656C186.159 67.1381 184.436 67.9994 182.408 67.9994C179.574 67.9994 177.852 66.4435 177.852 64.1098ZM186.992 62.5539V61.5815H186.242C183.158 61.6927 181.519 62.2761 181.519 63.8042C181.519 64.8321 182.325 65.4711 183.63 65.4711C185.575 65.4711 186.964 64.2765 186.992 62.5539Z" fill="#565656"></path>
  <path d="M171.325 52.4411C170.964 52.4411 170.77 52.3578 170.77 52.0522C170.77 51.1909 172.659 47.3013 174.965 47.3013C175.937 47.3013 176.548 47.9958 176.548 48.9405C176.548 51.052 172.492 52.4411 171.325 52.4411ZM173.076 67.8051C172.048 67.8051 171.297 67.3883 171.297 65.9436V55.8862C171.297 54.4693 172.048 53.997 173.076 53.997H173.464C174.52 53.997 175.215 54.4415 175.215 55.8862V65.9436C175.215 67.3606 174.492 67.8051 173.492 67.8051H173.076Z" fill="#565656"></path>
  <path d="M162.448 53.8301C166.116 53.8301 168.699 56.5806 168.699 60.9147C168.699 65.1377 166.143 68.0827 162.42 68.0827C160.337 68.0827 158.809 66.9714 158.086 65.61V71.2222C158.086 72.6391 157.364 73.1114 156.364 73.1114H155.947C154.891 73.1114 154.169 72.6669 154.169 71.2222V54.4413C154.169 54.3024 154.864 53.9968 155.669 53.9968C156.558 53.9968 157.586 54.4135 157.92 55.886C157.947 55.9971 157.975 56.275 158.003 56.4972C158.809 54.858 160.392 53.8301 162.448 53.8301ZM161.448 64.9433C163.56 64.9433 164.949 63.3318 164.949 60.9425C164.949 58.5532 163.532 56.9696 161.504 56.9696C159.837 56.9696 158.67 57.8308 158.086 59.1922V61.7482C158.086 63.6375 159.614 64.9433 161.448 64.9433Z" fill="#565656"></path>
  <path d="M146.202 53.8301C149.647 53.8301 151.091 56.0249 151.091 59.22V65.9434C151.091 67.3604 150.369 67.8049 149.369 67.8049H148.952C147.896 67.8049 147.174 67.3882 147.174 65.9434V59.8312C147.174 58.0531 146.396 57.1085 144.812 57.1085C143.701 57.1085 142.701 57.803 142.145 58.7754V65.9434C142.145 67.3604 141.423 67.8049 140.423 67.8049H140.006C138.978 67.8049 138.228 67.3882 138.228 65.9434V59.9145C138.228 58.0531 137.45 57.1085 135.894 57.1085C134.783 57.1085 133.783 57.803 133.227 58.7754V65.9434C133.227 67.3604 132.505 67.8049 131.504 67.8049H131.088C130.032 67.8049 129.31 67.3882 129.31 65.9434V54.4413C129.31 54.3024 130.004 53.9968 130.782 53.9968C131.754 53.9968 132.81 54.4135 133.116 56.2194C134.033 54.858 135.338 53.8301 137.311 53.8301C139.561 53.8301 140.978 54.9136 141.645 56.6084C142.562 55.0525 143.951 53.8301 146.202 53.8301Z" fill="#565656"></path>
  <path d="M121.866 49.9686C121.866 48.7184 122.7 47.9404 124.061 47.9404C125.422 47.9404 126.256 48.7184 126.256 49.9686C126.256 51.2188 125.45 51.9967 124.061 51.9967C122.727 51.9967 121.866 51.2188 121.866 49.9686ZM122.088 65.9438V55.8864C122.088 54.4694 122.839 53.9971 123.839 53.9971H124.256C125.284 53.9971 126.006 54.4416 126.006 55.8864V65.9438C126.006 67.3607 125.284 67.8052 124.256 67.8052H123.867C122.811 67.8052 122.088 67.3885 122.088 65.9438Z" fill="#565656"></path>
  <path d="M116.534 67.805C115.506 67.805 114.756 67.3883 114.756 65.9436V48.8293C114.756 48.7182 115.45 48.3848 116.228 48.3848C117.395 48.3848 118.673 48.996 118.673 51.5242V65.9436C118.673 67.3605 117.951 67.805 116.951 67.805H116.534Z" fill="#565656"></path>
  <path d="M102.689 68.0831C97.2438 68.0831 93.4375 64.2213 93.4375 58.7202C93.4375 53.247 97.3271 49.3296 102.717 49.3296C108.135 49.3296 111.941 53.1914 111.941 58.6924C111.941 64.1935 108.107 68.0831 102.689 68.0831ZM102.717 64.4435C105.773 64.4435 107.885 62.1375 107.885 58.7202C107.885 55.3307 105.745 52.9692 102.689 52.9692C99.6053 52.9692 97.5216 55.2474 97.5216 58.6924C97.5216 62.1097 99.6331 64.4435 102.717 64.4435Z" fill="#565656"></path>
  <path d="M246.943 90.6445C246.943 87.206 250.287 85.6288 256.817 85.5341H257.322C257.322 85.3764 257.322 85.2187 257.29 85.0925C257.227 83.2944 256.123 82.3165 254.167 82.3165C252.054 82.3165 250.918 83.389 250.382 84.5562C250.35 84.6193 247.511 84.8401 247.511 82.7897C247.511 82.0957 247.827 81.3701 248.458 80.7707C249.499 79.6982 251.486 78.9727 254.451 78.9727C259.341 78.9727 261.707 81.2124 261.707 85.3448V94.4299C261.707 94.6508 260.886 94.9347 260.035 94.9347C258.962 94.9347 258.11 94.493 257.7 93.452C257.606 93.1681 257.511 92.8211 257.448 92.411C256.375 94.0829 254.42 95.0609 252.117 95.0609C248.899 95.0609 246.943 93.2943 246.943 90.6445ZM257.322 88.8779V87.7738H256.47C252.969 87.9 251.107 88.5625 251.107 90.2975C251.107 91.4647 252.022 92.1902 253.505 92.1902C255.713 92.1902 257.29 90.8338 257.322 88.8779Z" fill="#565656"></path>
  <path d="M230.739 87.0168C230.739 82.348 234.115 78.9727 238.783 78.9727C241.149 78.9727 242.79 79.6667 243.831 80.5184C244.872 81.3701 245.345 82.4111 245.345 83.1682C245.345 84.9663 242.947 85.3133 242.853 85.124C242.253 83.6414 241.149 82.5688 238.973 82.5688C236.575 82.5688 234.809 84.43 234.809 87.0168C234.809 89.6666 236.544 91.5593 238.973 91.5593C241.086 91.5593 242.253 90.4868 242.853 89.0041C242.947 88.8148 245.345 89.0672 245.345 90.9915C245.345 91.717 244.872 92.758 243.799 93.5782C242.758 94.4615 241.086 95.1555 238.783 95.1555C234.052 95.1555 230.739 91.8117 230.739 87.0168Z" fill="#565656"></path>
  <path d="M223.391 74.588C223.391 73.1684 224.337 72.2852 225.883 72.2852C227.428 72.2852 228.375 73.1684 228.375 74.588C228.375 76.0075 227.46 76.8908 225.883 76.8908C224.369 76.8908 223.391 76.0075 223.391 74.588ZM223.643 92.7266V81.3072C223.643 79.6983 224.495 79.1621 225.63 79.1621H226.104C227.271 79.1621 228.091 79.6668 228.091 81.3072V92.7266C228.091 94.3355 227.271 94.8402 226.104 94.8402H225.662C224.463 94.8402 223.643 94.367 223.643 92.7266Z" fill="#565656"></path>
  <path d="M217.258 95.1555C213.883 95.1555 212.306 93.3574 212.306 89.8559V82.7897H211.517C210.255 82.7897 209.688 82.2218 209.688 81.2124V80.96C209.688 79.919 210.255 79.3197 211.486 79.3197H212.306V77.3638C212.306 75.9128 213.031 75.2188 214.293 75.2188H214.703C215.87 75.2188 216.659 75.7235 216.659 77.3638V79.3197H219.34C220.602 79.3197 221.139 79.8559 221.139 80.8654V81.1493C221.139 82.2218 220.571 82.7897 219.309 82.7897H216.596V89.3511C216.596 90.8653 217.069 91.6224 218.299 91.6224C219.183 91.6224 219.814 91.1808 220.224 90.5814C220.381 90.5183 221.328 91.1492 221.328 92.3164C221.328 92.9789 221.075 93.5467 220.571 94.0199C219.877 94.7139 218.741 95.1555 217.258 95.1555Z" fill="#565656"></path>
  <path d="M198.736 77.3955C198.326 77.3955 198.105 77.3008 198.105 76.9538C198.105 75.9759 200.25 71.5596 202.868 71.5596C203.972 71.5596 204.666 72.3482 204.666 73.4208C204.666 75.8182 200.061 77.3955 198.736 77.3955ZM193.278 90.6446C193.278 87.2061 196.622 85.6289 203.152 85.5342H203.657C203.657 85.3765 203.657 85.2188 203.625 85.0926C203.562 83.2945 202.458 82.3166 200.502 82.3166C198.389 82.3166 197.253 83.3891 196.717 84.5563C196.685 84.6194 193.846 84.8402 193.846 82.7898C193.846 82.0958 194.162 81.3702 194.793 80.7709C195.834 79.6983 197.821 78.9728 200.786 78.9728C205.676 78.9728 208.042 81.2125 208.042 85.3449V94.4301C208.042 94.6509 207.221 94.9348 206.37 94.9348C205.297 94.9348 204.445 94.4931 204.035 93.4521C203.941 93.1682 203.846 92.8212 203.783 92.4111C202.71 94.0831 200.755 95.061 198.452 95.061C195.234 95.061 193.278 93.2944 193.278 90.6446ZM203.657 88.878V87.774H202.805C199.304 87.9001 197.442 88.5626 197.442 90.2976C197.442 91.4648 198.357 92.1903 199.84 92.1903C202.048 92.1903 203.625 90.8339 203.657 88.878Z" fill="#565656"></path>
  <path d="M185.337 78.9727C189.249 78.9727 190.889 81.4648 190.889 85.0925V92.7265C190.889 94.3353 190.069 94.84 188.933 94.84H188.46C187.261 94.84 186.441 94.3669 186.441 92.7265V85.7865C186.441 83.7676 185.558 82.695 183.76 82.695C182.498 82.695 181.362 83.4837 180.731 84.5878V92.7265C180.731 94.3353 179.911 94.84 178.775 94.84H178.302C177.135 94.84 176.283 94.3669 176.283 92.7265V85.8811C176.283 83.7676 175.4 82.695 173.634 82.695C172.372 82.695 171.236 83.4837 170.605 84.5878V92.7265C170.605 94.3353 169.785 94.84 168.649 94.84H168.176C166.977 94.84 166.157 94.3669 166.157 92.7265V79.6667C166.157 79.5089 166.946 79.1619 167.829 79.1619C168.933 79.1619 170.132 79.6351 170.479 81.6856C171.52 80.1398 173.003 78.9727 175.242 78.9727C177.798 78.9727 179.406 80.2029 180.163 82.1272C181.204 80.3607 182.782 78.9727 185.337 78.9727Z" fill="#565656"></path>
  <path d="M148.024 87.1429C148.024 82.4427 151.368 78.9727 156.005 78.9727C160.58 78.9727 163.671 82.1587 163.671 86.6698V86.9537C163.639 87.7108 163.419 88.1208 162.598 88.1208H151.936L152.031 88.6256C152.504 90.6445 154.176 91.9379 156.447 91.9379C158.75 91.9379 160.075 90.9284 160.769 89.6981C160.8 89.635 162.945 89.8243 162.945 91.5909C162.945 92.4426 162.346 93.3259 161.242 93.9883C160.106 94.6823 158.466 95.1555 156.321 95.1555C151.305 95.1555 148.024 92.0325 148.024 87.1429ZM159.57 85.6918C159.444 83.4521 158.087 82.0326 155.974 82.0326C153.86 82.0326 152.283 83.5468 151.999 85.6918H159.57Z" fill="#565656"></path>
  <path d="M142.708 95.1555C139.332 95.1555 137.755 93.3574 137.755 89.8559V82.7897H136.966C135.705 82.7897 135.137 82.2218 135.137 81.2124V80.96C135.137 79.919 135.705 79.3197 136.935 79.3197H137.755V77.3638C137.755 75.9128 138.481 75.2188 139.742 75.2188H140.152C141.32 75.2188 142.108 75.7235 142.108 77.3638V79.3197H144.79C146.051 79.3197 146.588 79.8559 146.588 80.8654V81.1493C146.588 82.2218 146.02 82.7897 144.758 82.7897H142.045V89.3511C142.045 90.8653 142.518 91.6224 143.749 91.6224C144.632 91.6224 145.263 91.1808 145.673 90.5814C145.831 90.5183 146.777 91.1492 146.777 92.3164C146.777 92.9789 146.525 93.5467 146.02 94.0199C145.326 94.7139 144.19 95.1555 142.708 95.1555Z" fill="#565656"></path>
  <path d="M118.728 90.6445C118.728 87.206 122.071 85.6288 128.601 85.5341H129.106C129.106 85.3764 129.106 85.2187 129.074 85.0925C129.011 83.2944 127.907 82.3165 125.951 82.3165C123.838 82.3165 122.702 83.389 122.166 84.5562C122.134 84.6193 119.295 84.8401 119.295 82.7897C119.295 82.0957 119.611 81.3701 120.242 80.7707C121.283 79.6982 123.27 78.9727 126.235 78.9727C131.125 78.9727 133.491 81.2124 133.491 85.3448V94.4299C133.491 94.6508 132.671 94.9347 131.819 94.9347C130.746 94.9347 129.895 94.493 129.485 93.452C129.39 93.1681 129.295 92.8211 129.232 92.411C128.16 94.0829 126.204 95.0609 123.901 95.0609C120.683 95.0609 118.728 93.2943 118.728 90.6445ZM129.106 88.8779V87.7738H128.254C124.753 87.9 122.892 88.5625 122.892 90.2975C122.892 91.4647 123.806 92.1902 125.289 92.1902C127.497 92.1902 129.074 90.8338 129.106 88.8779Z" fill="#565656"></path>
  <path d="M95.7686 92.7265V76.5121C95.7686 74.9979 96.6203 74.1777 98.0714 74.1777H99.3332C100.784 74.1777 101.226 74.6194 101.762 75.8496L105.895 85.471L110.059 75.8496C110.595 74.5563 111.1 74.1777 112.425 74.1777H113.655C115.137 74.1777 116.021 74.9979 116.021 76.5121V92.7265C116.021 94.1145 115.484 94.84 114.16 94.84H113.466C112.172 94.84 111.636 94.1145 111.636 92.7265V80.5499L108.229 88.8464C107.882 89.635 107.693 90.2975 105.863 90.2975C104.033 90.2975 103.907 89.635 103.529 88.8464L100.153 80.7077V92.7265C100.153 94.1145 99.6487 94.84 98.3237 94.84H97.5666C96.3048 94.84 95.7686 94.1145 95.7686 92.7265Z" fill="#565656"></path>
  <path fill-rule="evenodd" clip-rule="evenodd" d="M18.2741 74.3264C24.7276 82.8399 30.6597 82.2804 39.8026 89.1853C38.5119 88.2125 45.8365 96.0775 48.5069 96.9167C56.1938 99.3392 64.0588 86.5276 70.614 78.9233C83.7244 63.7274 74.5306 55.8688 55.4817 60.9871C43.2424 66.3025 29.1337 67.129 15.7881 65.8129L18.2741 74.3264Z" fill="url(#paint0_linear_470_7)"></path>
  <path d="M57.5107 99.7393H56.6523V99.7901H57.5107V99.7393Z" fill="white"></path>
  <path fill-rule="evenodd" clip-rule="evenodd" d="M39.6949 88.3077C39.2816 87.9326 38.8747 87.5574 38.4741 87.1696C30.0814 79.5526 15.5595 71.6113 18.4588 59.7344C15.5277 65.5584 15.0191 72.7621 16.8629 79.5017C19.2154 88.1678 25.3128 95.5051 37.9337 105.64C47.3119 114.077 50.0776 122.819 46.4917 129.928C48.6661 121.948 43.1346 111.985 33.4894 113.27C29.0705 124.829 32.6819 138.486 46.9495 138.708C64.5868 138.429 65.9284 117.619 55.9589 105.634C53.085 101.895 50.0522 98.4298 46.9495 95.1363C44.7623 92.9427 42.219 90.6793 39.6949 88.3077Z" fill="url(#paint1_linear_470_7)"></path>
  <path fill-rule="evenodd" clip-rule="evenodd" d="M75.478 59.8169C78.4346 72.2534 62.3168 80.3726 54.2293 88.3076H54.2165C51.6796 90.6791 49.1428 92.9426 46.9492 95.1362C50.052 98.4297 53.0848 101.895 55.9587 105.633C68.5731 95.4986 74.6706 88.1613 77.0358 79.4952C78.8605 72.8002 78.3646 65.6219 75.478 59.8105V59.8169Z" fill="url(#paint2_linear_470_7)"></path>
  <path fill-rule="evenodd" clip-rule="evenodd" d="M46.4916 129.928C50.0776 122.82 47.3118 114.071 37.9336 105.64C36.0261 107.929 34.5383 110.542 33.4893 113.27C43.1345 111.986 48.6661 121.949 46.4916 129.928Z" fill="#2054A2"></path>
  <path fill-rule="evenodd" clip-rule="evenodd" d="M38.4745 87.1696C30.1581 79.6289 15.827 71.7702 18.3829 60.084C16.5963 68.2796 23.0943 74.5869 30.0119 80.2202C31.8367 81.708 33.6933 83.1513 35.4354 84.5691C36.4972 85.4402 37.5335 86.3112 38.4682 87.1696H38.4745ZM30.0119 80.2202C23.0943 74.5805 16.5963 68.2796 18.3829 60.084C18.4084 59.9632 18.4338 59.8552 18.4656 59.7471C16.2657 65.5457 19.9534 72.1199 24.0417 76.2018C29.0391 81.193 36.8532 85.8153 43.3576 91.6965C42.1622 90.5839 40.9288 89.4585 39.7017 88.3077C39.2884 87.9325 38.8815 87.5574 38.4809 87.1696C37.5399 86.3112 36.5035 85.4402 35.4481 84.5691C33.6996 83.1513 31.8494 81.7016 30.0246 80.2202H30.0119Z" fill="url(#paint3_linear_470_7)"></path>
  <path fill-rule="evenodd" clip-rule="evenodd" d="M75.478 59.8423C78.4028 72.266 62.304 80.3662 54.2293 88.3075H54.2165C52.9703 89.4711 51.7178 90.6219 50.5098 91.7345C56.995 85.8724 64.7901 81.1992 69.7685 76.2017C73.8377 72.1325 77.6271 65.6218 75.478 59.8359V59.8423Z" fill="url(#paint4_linear_470_7)"></path>
  <path fill-rule="evenodd" clip-rule="evenodd" d="M46.9486 95.1426C44.329 92.7075 36.1652 92.4214 44.1383 100.63C49.3202 105.958 52.9761 111.502 54.5338 117.326C56.7528 125.573 56.4158 137.799 45.6579 138.645C46.0712 138.683 46.5035 138.696 46.9486 138.708C64.586 138.429 65.9275 117.619 55.958 105.634C53.0842 101.895 50.064 98.4425 46.9486 95.1363V95.1426Z" fill="url(#paint5_linear_470_7)"></path>
  <path d="M6.18776 59.4925C1.36196 55.0164 1.24116 45.1868 4.92886 38.3709C8.61656 31.555 15.1654 27.6193 21.5108 26.5257C27.8562 25.4322 34.0998 26.7991 40.1591 28.3823C46.2184 29.9655 52.2967 31.7903 58.6294 31.6122C40.4452 34.8549 13.0036 29.7938 6.18776 59.4925Z" fill="#AF1B23"></path>
  <path fill-rule="evenodd" clip-rule="evenodd" d="M16.4747 35.1413C6.85485 44.0998 21.949 46.4205 36.8015 46.5477C48.5131 44.9582 63.4738 42.4849 73.6785 51.577C70.0099 46.5731 64.9107 43.4386 59.3855 41.315C48.138 30.0866 29.3435 29.3617 16.4747 35.1413Z" fill="url(#paint6_linear_470_7)"></path>
  <path fill-rule="evenodd" clip-rule="evenodd" d="M49.575 45.1043C27.684 43.9344 10.2119 42.6755 16.4747 35.1411C6.85485 44.0997 21.949 46.4204 36.8015 46.5476C40.7881 46.0071 45.1497 45.3649 49.575 45.1043Z" fill="#67140F"></path>
  <path fill-rule="evenodd" clip-rule="evenodd" d="M49.2438 67.1351C65.2027 63.8862 76.2022 67.9999 63.9756 80.0357C78.8281 69.9391 69.4563 58.8569 53.224 64.0451C49.4537 65.9907 43.0383 66.6392 38.7275 68.1652L44.0683 67.8345C45.8041 67.7265 47.5335 67.4785 49.2438 67.1288V67.1351Z" fill="url(#paint7_linear_470_7)"></path>
  <path fill-rule="evenodd" clip-rule="evenodd" d="M17.0911 34.8677C-11.1325 50.2161 4.58476 81.4599 52.1307 64.4138C69.0305 58.3545 79.159 69.7101 63.9758 80.0293C74.295 73.8365 86.5789 60.0203 71.7708 49.5613C61.5915 42.3766 49.3267 43.7754 38.022 44.5956C23.1949 45.6765 8.00542 44.5829 17.0911 34.8613V34.8677Z" fill="url(#paint8_linear_470_7)"></path>
  <path fill-rule="evenodd" clip-rule="evenodd" d="M17.091 34.8677C-1.63999 45.0534 -1.0169 62.2457 15.4188 67.6628C8.11334 57.458 23.4173 47.7937 38.0282 44.6019C23.2011 45.6828 8.01161 44.5892 17.0973 34.8677H17.091Z" fill="url(#paint9_linear_470_7)"></path>
  <path fill-rule="evenodd" clip-rule="evenodd" d="M78.5812 61.7754C77.1951 51.8631 61.8658 59.5819 53.2314 64.0453C69.4637 58.857 78.8355 69.9329 63.983 80.0359C70.5573 76.0939 77.92 69.0618 78.5812 61.7754Z" fill="url(#paint10_linear_470_7)"></path>
  <path d="M3.79693 57.2102C0.172809 48.3343 1.60974 36.8833 7.25574 29.6542C13.4549 21.7193 23.2845 19.5066 32.3893 19.5702C41.4941 19.6402 50.6498 21.5285 59.6529 19.9453C68.6559 18.3558 77.9388 12.1885 80.5329 1.79932C81.6837 11.1267 78.2185 21.4904 73.3737 28.9548C68.5351 36.4192 61.0771 41.3976 53.2058 42.434C46.6315 43.2987 40.0381 41.5247 33.5147 40.1959C26.9913 38.8671 20.1309 38.0151 13.8872 40.6092C7.63722 43.2033 3.43452 49.3452 3.79693 57.2038V57.2102Z" fill="url(#paint11_linear_470_7)"></path>
  <defs>
    <linearGradient id="paint0_linear_470_7" x1="19.089" y1="87.8254" x2="74.7136" y2="64.1154" gradientUnits="userSpaceOnUse">
      <stop stop-color="#6F100A"></stop>
      <stop offset="1" stop-color="#EA560D"></stop>
    </linearGradient>
    <linearGradient id="paint1_linear_470_7" x1="21.2882" y1="49.7649" x2="54.4075" y2="143.248" gradientUnits="userSpaceOnUse">
      <stop stop-color="#89CCCA"></stop>
      <stop offset="0.32" stop-color="#0EB0D4"></stop>
      <stop offset="0.7" stop-color="#136FB7"></stop>
      <stop offset="1" stop-color="#1F4596"></stop>
    </linearGradient>
    <linearGradient id="paint2_linear_470_7" x1="84.036" y1="59.7533" x2="39.879" y2="118.629" gradientUnits="userSpaceOnUse">
      <stop stop-color="#406BB3"></stop>
      <stop offset="0.53" stop-color="#2E519F"></stop>
      <stop offset="1" stop-color="#282D67"></stop>
    </linearGradient>
    <linearGradient id="paint3_linear_470_7" x1="25.9364" y1="65.552" x2="59.0557" y2="159.035" gradientUnits="userSpaceOnUse">
      <stop stop-color="#89CCCA"></stop>
      <stop offset="0.32" stop-color="#0EB0D4"></stop>
      <stop offset="0.7" stop-color="#136FB7"></stop>
      <stop offset="1" stop-color="#1F4596"></stop>
    </linearGradient>
    <linearGradient id="paint4_linear_470_7" x1="73.3989" y1="66.5119" x2="29.2419" y2="125.394" gradientUnits="userSpaceOnUse">
      <stop stop-color="#50A4DB"></stop>
      <stop offset="0.53" stop-color="#2E519F"></stop>
      <stop offset="1" stop-color="#282D67"></stop>
    </linearGradient>
    <linearGradient id="paint5_linear_470_7" x1="31.0088" y1="63.7845" x2="64.1282" y2="157.268" gradientUnits="userSpaceOnUse">
      <stop stop-color="#89CCCA"></stop>
      <stop offset="0.32" stop-color="#0EB0D4"></stop>
      <stop offset="0.7" stop-color="#136FB7"></stop>
      <stop offset="1" stop-color="#1F4596"></stop>
    </linearGradient>
    <linearGradient id="paint6_linear_470_7" x1="20.6153" y1="29.0235" x2="65.8222" y2="62.2609" gradientUnits="userSpaceOnUse">
      <stop stop-color="#6F100A"></stop>
      <stop offset="1" stop-color="#EA560D"></stop>
    </linearGradient>
    <linearGradient id="paint7_linear_470_7" x1="77.5454" y1="58.7856" x2="54.0393" y2="72.5317" gradientUnits="userSpaceOnUse">
      <stop stop-color="#6F100A"></stop>
      <stop offset="1" stop-color="#EA560D"></stop>
    </linearGradient>
    <linearGradient id="paint8_linear_470_7" x1="12.0481" y1="36.154" x2="69.1944" y2="78.168" gradientUnits="userSpaceOnUse">
      <stop stop-color="#E94E1B"></stop>
      <stop offset="1" stop-color="#F9B233"></stop>
    </linearGradient>
    <linearGradient id="paint9_linear_470_7" x1="7.92915" y1="43.0567" x2="35.8078" y2="63.5555" gradientUnits="userSpaceOnUse">
      <stop stop-color="#BE1622"></stop>
      <stop offset="1" stop-color="#F39200"></stop>
    </linearGradient>
    <linearGradient id="paint10_linear_470_7" x1="56.8408" y1="59.1353" x2="73.9479" y2="71.7104" gradientUnits="userSpaceOnUse">
      <stop stop-color="#E94E1B"></stop>
      <stop offset="1" stop-color="#00A19A"></stop>
    </linearGradient>
    <linearGradient id="paint11_linear_470_7" x1="2.70335" y1="27.5744" x2="79.5319" y2="31.332" gradientUnits="userSpaceOnUse">
      <stop stop-color="#E94E1B"></stop>
      <stop offset="1" stop-color="#E30613"></stop>
    </linearGradient>
  </defs>
</svg>
